<svg width="120" height="161" viewBox="0 0 120 161" fill="none" xmlns="http://www.w3.org/2000/svg">
<rect x="60.5" y="1.20246" width="59" height="79" fill="white" stroke="black"/>
<path d="M118.918 71.1145C118.918 71.4985 118.846 71.8345 118.702 72.1225C118.558 72.4025 118.358 72.6305 118.102 72.8065C117.854 72.9825 117.558 73.1105 117.214 73.1905V73.2385C117.87 73.3185 118.358 73.5345 118.678 73.8865C119.006 74.2305 119.17 74.6865 119.17 75.2545C119.17 75.7505 119.058 76.1945 118.834 76.5865C118.61 76.9705 118.262 77.2745 117.79 77.4985C117.326 77.7145 116.73 77.8225 116.002 77.8225C115.562 77.8225 115.158 77.7865 114.79 77.7145C114.43 77.6425 114.082 77.5225 113.746 77.3545V76.2025C114.082 76.3865 114.442 76.5265 114.826 76.6225C115.218 76.7185 115.586 76.7665 115.93 76.7665C116.594 76.7665 117.07 76.6305 117.358 76.3585C117.646 76.0785 117.79 75.6905 117.79 75.1945C117.79 74.8745 117.714 74.6145 117.562 74.4145C117.41 74.2065 117.178 74.0545 116.866 73.9585C116.554 73.8545 116.158 73.8025 115.678 73.8025H114.982V72.7585H115.69C116.138 72.7585 116.502 72.6985 116.782 72.5785C117.07 72.4505 117.278 72.2745 117.406 72.0505C117.542 71.8265 117.61 71.5705 117.61 71.2825C117.61 70.8985 117.494 70.6025 117.262 70.3945C117.038 70.1785 116.714 70.0705 116.29 70.0705C116.018 70.0705 115.766 70.1025 115.534 70.1665C115.31 70.2305 115.102 70.3145 114.91 70.4185C114.726 70.5225 114.554 70.6385 114.394 70.7665L113.782 69.8905C113.982 69.7305 114.21 69.5825 114.466 69.4465C114.722 69.3105 115.006 69.2065 115.318 69.1345C115.63 69.0545 115.978 69.0145 116.362 69.0145C117.202 69.0145 117.838 69.2105 118.27 69.6025C118.702 69.9865 118.918 70.4905 118.918 71.1145Z" fill="black"/>
<rect x="30.5" y="41.2025" width="59" height="79" fill="white" stroke="black"/>
<path d="M89.2296 117.702H83.7576V116.718L85.8336 114.474C86.2336 114.034 86.5656 113.654 86.8296 113.334C87.0936 113.006 87.2896 112.694 87.4176 112.398C87.5536 112.094 87.6216 111.766 87.6216 111.414C87.6216 110.974 87.5056 110.646 87.2736 110.43C87.0496 110.206 86.7536 110.094 86.3856 110.094C86.0256 110.094 85.7016 110.17 85.4136 110.322C85.1256 110.466 84.8256 110.67 84.5136 110.934L83.8056 110.082C84.0296 109.882 84.2656 109.702 84.5136 109.542C84.7696 109.382 85.0536 109.254 85.3656 109.158C85.6856 109.062 86.0456 109.014 86.4456 109.014C86.9576 109.014 87.3976 109.11 87.7656 109.302C88.1416 109.486 88.4296 109.75 88.6296 110.094C88.8376 110.438 88.9416 110.842 88.9416 111.306C88.9416 111.65 88.8896 111.97 88.7856 112.266C88.6896 112.562 88.5456 112.854 88.3536 113.142C88.1696 113.43 87.9456 113.726 87.6816 114.03C87.4256 114.326 87.1416 114.646 86.8296 114.99L85.4136 116.514V116.574H89.2296V117.702Z" fill="black"/>
<rect x="0.5" y="81.2025" width="59" height="79" fill="white" stroke="black"/>
<path d="M57.5736 157.702H56.2776V152.014C56.2776 151.814 56.2776 151.63 56.2776 151.462C56.2856 151.286 56.2896 151.118 56.2896 150.958C56.2976 150.79 56.3056 150.63 56.3136 150.478C56.2176 150.582 56.1176 150.686 56.0136 150.79C55.9096 150.886 55.7936 150.994 55.6656 151.114L54.8016 151.87L54.1176 151.054L56.4576 149.134H57.5736V157.702Z" fill="black"/>
</svg>
